<svg width="24" height="24" viewBox="0 0 24 24" fill="none" xmlns="http://www.w3.org/2000/svg">
<g id="Car 13">
<path id="Vector" d="M21 9.75H21.75C22.2 9.75 22.5 9.45 22.5 9C22.5 8.55 22.2 8.25 21.75 8.25H19.65L18.75 6C18.15 4.65 16.8 3.75 15.3 3.75H8.775C7.2 3.75 5.85 4.65 5.25 6L4.275 8.25H2.25C1.8 8.25 1.5 8.55 1.5 9C1.5 9.45 1.8 9.75 2.25 9.75H3C2.1 10.425 1.5 11.55 1.5 12.75V15.75C1.5 16.425 1.8 17.025 2.25 17.4V18.75C2.25 20.025 3.225 21 4.5 21H6C7.275 21 8.25 20.025 8.25 18.75V18H15.75V18.75C15.75 20.025 16.725 21 18 21H19.5C20.775 21 21.75 20.025 21.75 18.75V17.4C22.2 17.025 22.5 16.425 22.5 15.75V12.75C22.5 11.55 21.9 10.425 21 9.75ZM20.25 13.5C20.25 13.95 19.95 14.25 19.5 14.25H17.25C16.8 14.25 16.5 13.95 16.5 13.5C16.5 13.05 16.8 12.75 17.25 12.75H19.5C19.95 12.75 20.25 13.05 20.25 13.5ZM4.5 12.75H6.75C7.2 12.75 7.5 13.05 7.5 13.5C7.5 13.95 7.2 14.25 6.75 14.25H4.5C4.05 14.25 3.75 13.95 3.75 13.5C3.75 13.05 4.05 12.75 4.5 12.75ZM7.8 16.5L8.7 14.775C9.075 14.025 9.825 13.5 10.725 13.5H13.35C14.175 13.5 15 13.95 15.375 14.775L16.275 16.5H7.8ZM6.675 6.6C7.05 5.775 7.8 5.25 8.7 5.25H15.225C16.125 5.25 16.95 5.775 17.325 6.6L18.375 9H5.625L6.675 6.6Z" fill="#1B1B1B"/>
</g>
</svg>
