<svg width="24" height="24" viewBox="0 0 24 24" fill="none" xmlns="http://www.w3.org/2000/svg">
<g id="Home 1" clip-path="url(#clip0_1_69)">
<g id="Group">
<path id="Vector" d="M22.4211 10.0223L22.4195 10.0207L13.0201 0.621648C12.6194 0.220747 12.0867 0 11.5202 0C10.9535 0 10.4209 0.220613 10.0201 0.621468L0.625487 10.0158C0.622336 10.0189 0.619186 10.0223 0.616036 10.0254C-0.206738 10.8529 -0.205298 12.1955 0.620086 13.0209C0.997135 13.3981 1.4952 13.6166 2.02769 13.6395C2.0493 13.6416 2.07112 13.6426 2.09309 13.6426H2.4677V20.5599C2.4677 21.9287 3.58139 23.0423 4.95052 23.0423H8.62784C9.00057 23.0423 9.30291 22.7401 9.30291 22.3673V16.9442C9.30291 16.3196 9.81101 15.8116 10.4356 15.8116H12.6046C13.2293 15.8116 13.7373 16.3197 13.7373 16.9442V22.3673C13.7373 22.7401 14.0395 23.0423 14.4124 23.0423H18.0897C19.4589 23.0423 20.5726 21.9287 20.5726 20.5599V13.6427H20.9199C21.4864 13.6427 22.019 13.4221 22.42 13.0213C23.2463 12.1945 23.2466 10.8496 22.4211 10.0223Z" fill="#1B1B1B"/>
</g>
</g>
<defs>
<clipPath id="clip0_1_69">
<rect width="24" height="24" fill="white"/>
</clipPath>
</defs>
</svg>
