<svg width="20" height="20" viewBox="0 0 20 20" fill="none" xmlns="http://www.w3.org/2000/svg">
<g id="Magnifying Glass Icon 1">
<g id="search">
<g id="Group">
<g id="Group_2">
<path id="Vector" d="M17.8719 16.993L13.6227 12.7434C14.6441 11.543 15.2035 10.0281 15.2035 8.44727C15.2035 4.78555 12.2246 1.80664 8.5629 1.80664C4.90118 1.80664 1.92227 4.78555 1.92227 8.44727C1.92227 12.109 4.90118 15.0879 8.5629 15.0879C10.0234 15.0879 11.4477 14.6016 12.6035 13.7133L16.8777 17.9871C17.0105 18.1203 17.1871 18.1934 17.375 18.1934C17.5625 18.1934 17.739 18.1203 17.8718 17.9871C18.1461 17.7129 18.1461 17.2668 17.8719 16.993ZM8.5629 3.13477C11.4922 3.13477 13.8754 5.51797 13.8754 8.44727C13.8754 11.3766 11.4922 13.7598 8.5629 13.7598C5.6336 13.7598 3.2504 11.3766 3.2504 8.44727C3.2504 5.51797 5.6336 3.13477 8.5629 3.13477Z" fill="#626262"/>
</g>
</g>
</g>
</g>
</svg>
