<svg width="25" height="25" viewBox="0 0 25 25" fill="none" xmlns="http://www.w3.org/2000/svg">
<g id="People icon 1">
<path id="Vector" d="M22.5089 12.387C22.068 11.9462 21.5477 11.5928 20.9755 11.3453C21.3608 11.071 21.6841 10.719 21.9249 10.312C22.1655 9.90495 22.3182 9.45198 22.3729 8.98229C22.4277 8.5126 22.3833 8.03661 22.2426 7.58516C22.1019 7.1337 21.8681 6.71672 21.5563 6.36125C21.2445 6.00573 20.8616 5.71963 20.4323 5.5213C20.003 5.32302 19.5369 5.21698 19.0641 5.21C18.5913 5.20307 18.1223 5.29536 17.6873 5.48099C17.2524 5.66656 16.8612 5.9413 16.5391 6.2875C16.3161 5.38474 15.7972 4.58272 15.0651 4.00942C14.3329 3.43611 13.4299 3.1246 12.5 3.1246C11.5701 3.1246 10.6671 3.43611 9.93497 4.00942C9.20283 4.58272 8.68393 5.38474 8.46096 6.2875C8.13888 5.94088 7.74768 5.66578 7.31257 5.47984C6.87747 5.29396 6.40825 5.20143 5.93512 5.20826C5.46205 5.2151 4.99566 5.32114 4.56614 5.51958C4.1366 5.71797 3.75349 6.00432 3.44158 6.36005C3.12966 6.71583 2.89588 7.13312 2.75535 7.58489C2.61483 8.03667 2.57068 8.51292 2.62577 8.98286C2.68086 9.45276 2.83396 9.90588 3.07517 10.3129C3.31637 10.72 3.64032 11.0719 4.02606 11.3458C3.14054 11.7296 2.38639 12.3637 1.85622 13.1701C1.32605 13.9766 1.04295 14.9203 1.04169 15.8854V18.2292C1.04252 18.9196 1.31715 19.5815 1.80534 20.0697C2.29354 20.5579 2.95544 20.8325 3.64585 20.8333H7.30523C7.5458 21.1556 7.85804 21.4175 8.21726 21.5983C8.57648 21.7791 8.97289 21.8739 9.37502 21.875H15.625C16.0272 21.8739 16.4236 21.7791 16.7828 21.5983C17.142 21.4175 17.4542 21.1556 17.6948 20.8333H21.3542C22.0446 20.8325 22.7065 20.5579 23.1947 20.0697C23.6829 19.5815 23.9575 18.9196 23.9584 18.2292V15.8854C23.9601 15.2354 23.8329 14.5915 23.5841 13.991C23.3353 13.3905 22.9699 12.8453 22.5089 12.387ZM19.0104 6.25C19.474 6.25 19.9271 6.38745 20.3126 6.645C20.698 6.90255 20.9984 7.26859 21.1758 7.69682C21.3532 8.1251 21.3996 8.59635 21.3091 9.05099C21.2187 9.50562 20.9955 9.92323 20.6677 10.251C20.3399 10.5788 19.9223 10.802 19.4677 10.8924C19.013 10.9829 18.5418 10.9365 18.1135 10.7591C17.6853 10.5817 17.3192 10.2813 17.0617 9.89588C16.8041 9.51042 16.6667 9.05729 16.6667 8.59375C16.6674 7.97234 16.9146 7.37661 17.3539 6.93724C17.7933 6.49786 18.389 6.25068 19.0104 6.25ZM16.2219 11.799C15.7574 11.3996 15.2318 11.0774 14.6651 10.8448C15.1218 10.5652 15.5209 10.2009 15.8406 9.77135C16.0772 10.4056 16.498 10.9546 17.049 11.3479C16.7597 11.4719 16.4828 11.6229 16.2219 11.799ZM12.5 4.16667C13.1181 4.16667 13.7223 4.34995 14.2362 4.69333C14.7501 5.03671 15.1506 5.52474 15.3872 6.09578C15.6237 6.66682 15.6855 7.29516 15.565 7.9013C15.4444 8.5075 15.1468 9.06432 14.7097 9.50135C14.2727 9.93844 13.7159 10.236 13.1097 10.3566C12.5035 10.4772 11.8752 10.4153 11.3041 10.1788C10.7331 9.94229 10.2451 9.54172 9.90169 9.02781C9.5583 8.51391 9.37502 7.90974 9.37502 7.29167C9.37585 6.46312 9.70533 5.66875 10.2912 5.08287C10.8771 4.497 11.6715 4.16749 12.5 4.16667ZM8.77815 11.799C8.51726 11.6229 8.24033 11.4719 7.95106 11.3479C8.50205 10.9546 8.92283 10.4056 9.1594 9.77135C9.47919 10.2009 9.8782 10.5652 10.3349 10.8448C9.76825 11.0774 9.24263 11.3996 8.77815 11.799ZM3.64585 8.59375C3.64585 8.13021 3.78331 7.67708 4.04085 7.29161C4.29838 6.9062 4.66443 6.60578 5.09269 6.42838C5.52096 6.25104 5.99221 6.20458 6.44684 6.29505C6.90148 6.38547 7.31908 6.6087 7.6469 6.93646C7.97466 7.26427 8.19789 7.68187 8.2883 8.13651C8.37877 8.59114 8.33236 9.06239 8.15497 9.49068C7.97757 9.9189 7.67716 10.285 7.29174 10.5425C6.90627 10.8001 6.45315 10.9375 5.9896 10.9375C5.3682 10.9368 4.77247 10.6896 4.33308 10.2503C3.89369 9.81088 3.64654 9.21516 3.64585 8.59375ZM3.64585 19.7917C3.23145 19.7917 2.83403 19.627 2.541 19.334C2.24797 19.041 2.08335 18.6436 2.08335 18.2292V15.8854C2.08235 15.1902 2.2672 14.5072 2.61879 13.9074C2.97036 13.3076 3.47589 12.8126 4.08301 12.4738C4.69014 12.1349 5.37679 11.9646 6.0719 11.9803C6.767 11.9959 7.44528 12.1971 8.03648 12.563C7.217 13.5772 6.77023 14.8419 6.77085 16.1458V19.2708C6.7707 19.4457 6.78815 19.6203 6.82294 19.7917H3.64585ZM17.1875 19.2708C17.1875 19.6853 17.0229 20.0827 16.7299 20.3757C16.4368 20.6687 16.0394 20.8333 15.625 20.8333H9.37502C8.96065 20.8333 8.5632 20.6687 8.27018 20.3757C7.97716 20.0827 7.81252 19.6853 7.81252 19.2708V16.1458C7.81252 14.9027 8.30638 13.7104 9.18544 12.8312C10.0646 11.9522 11.2568 11.4583 12.5 11.4583C13.7432 11.4583 14.9355 11.9522 15.8146 12.8312C16.6937 13.7104 17.1875 14.9027 17.1875 16.1458V19.2708ZM22.9167 18.2292C22.9167 18.6436 22.7521 19.041 22.459 19.334C22.166 19.627 21.7686 19.7917 21.3542 19.7917H18.1771C18.2119 19.6203 18.2293 19.4457 18.2292 19.2708V16.1458C18.2298 14.8419 17.783 13.5772 16.9636 12.563C17.5549 12.198 18.233 11.9976 18.9278 11.9823C19.6226 11.967 20.3089 12.1375 20.9157 12.4762C21.5225 12.8148 22.0279 13.3094 22.3797 13.9087C22.7315 14.5081 22.9168 15.1905 22.9167 15.8854V18.2292Z" fill="#1B1B1B"/>
</g>
</svg>
