<svg width="160" height="36" viewBox="0 0 160 36" fill="none" xmlns="http://www.w3.org/2000/svg">
<g id="Logo">
<path id="Vector" d="M52.6914 20.4404C50.0097 20.4404 47.3566 20.4404 44.6857 20.4404C44.6857 18.8535 44.6857 17.2809 44.6857 15.6869C47.1926 15.6869 49.6852 15.6869 52.2028 15.6869C52.1565 14.7669 52.0531 13.9003 51.2935 13.2763C50.7693 12.8412 50.131 12.6986 49.4784 12.6879C47.9914 12.6593 46.5043 12.6558 45.0173 12.6914C44.5644 12.7021 44.0902 12.8198 43.6694 12.9946C42.7993 13.3618 42.4498 14.1214 42.3428 15.0129C42.3107 15.2911 42.2965 15.5763 42.2965 15.8581C42.2929 17.2702 42.2715 18.6859 42.3071 20.098C42.3214 20.5902 42.4177 21.1037 42.5996 21.5601C42.9312 22.4017 43.6515 22.7833 44.5145 22.9081C44.7927 22.9473 45.0779 22.9687 45.3597 22.9687C48.323 22.9723 51.2899 22.9723 54.2533 22.9723C54.3531 22.9723 54.4494 22.9723 54.5635 22.9723C54.5635 24.5663 54.5635 26.1389 54.5635 27.7364C54.4637 27.7364 54.3745 27.7364 54.2854 27.7364C51.3648 27.7364 48.4478 27.7364 45.5273 27.7364C43.9903 27.7364 42.5496 27.3905 41.2266 26.5882C40.0035 25.8429 39.0799 24.8266 38.4166 23.5642C37.814 22.4195 37.5465 21.1857 37.5394 19.9055C37.5287 18.3364 37.5216 16.7674 37.5786 15.2019C37.6464 13.3975 38.3275 11.8142 39.5364 10.4769C41.0056 8.84728 42.867 8.01639 45.0423 7.94864C46.6363 7.89871 48.2374 7.89159 49.8279 7.98074C51.8391 8.09485 53.5472 8.93643 54.9201 10.427C56.1397 11.75 56.8351 13.3226 56.9064 15.1092C56.9777 16.8744 56.9207 18.6467 56.9207 20.4511C55.5371 20.4404 54.1285 20.4404 52.6914 20.4404Z" fill="#1B1B1B"/>
<path id="Vector_2" d="M117.347 9.32871C120.075 10.8371 121.544 13.2085 122.154 16.1755C122.389 17.313 122.46 18.4684 122.457 19.6274C122.453 22.2163 122.457 24.8088 122.457 27.3977C122.457 27.4975 122.457 27.5974 122.457 27.7115C120.866 27.7115 119.294 27.7115 117.693 27.7115C117.693 27.6117 117.693 27.5118 117.693 27.4155C117.693 24.7446 117.7 22.0701 117.689 19.3991C117.686 18.3864 117.639 17.3772 117.404 16.3858C116.976 14.6064 115.899 13.4617 114.13 13.0124C113.492 12.8484 112.822 12.7378 112.165 12.7164C110.718 12.6736 109.27 12.7022 107.801 12.7022C107.797 12.7271 107.79 12.7699 107.793 12.8127C107.797 14.2819 107.783 15.7511 107.815 17.2167C107.84 18.2865 107.997 19.3385 108.457 20.3263C109.045 21.5851 110.061 22.2983 111.367 22.6406C112.326 22.8938 113.303 22.9758 114.294 22.9687C114.622 22.9651 114.95 22.9687 115.296 22.9687C115.296 24.5485 115.296 26.1211 115.296 27.7258C114.84 27.7258 114.369 27.7365 113.902 27.7222C112.547 27.683 111.213 27.5118 109.922 27.0803C106.453 25.9178 104.331 23.5214 103.439 20.0018C103.136 18.8036 103.029 17.5769 103.029 16.3431C103.026 13.6079 103.029 10.8692 103.029 8.13409C103.029 8.0699 103.029 8.00928 103.029 7.93083C103.126 7.92727 103.204 7.91656 103.282 7.91656C105.9 7.91656 108.517 7.91656 111.135 7.91656C113.096 7.91656 115 8.21611 116.794 9.05412C116.972 9.13971 117.151 9.23243 117.347 9.32871Z" fill="#1B1B1B"/>
<path id="Vector_3" d="M76.006 22.8261C76.9474 22.8261 77.8603 22.8261 78.7911 22.8261C78.7911 24.4415 78.7911 26.039 78.7911 27.6544C78.7162 27.658 78.6377 27.6651 78.5593 27.6651C77.4289 27.6509 76.2949 27.6794 75.168 27.6117C73.5169 27.5118 71.9479 27.0625 70.5465 26.1211C70.0151 25.7645 69.5408 25.3223 69.0202 24.8979C68.8205 25.0834 68.5887 25.308 68.3462 25.522C66.9555 26.7273 65.3187 27.3692 63.5357 27.5403C62.1449 27.6723 60.7399 27.6651 59.3206 27.7222C59.3206 26.0676 59.3206 24.47 59.3206 22.8332C59.4027 22.8332 59.4954 22.8332 59.5881 22.8332C60.7363 22.8154 61.8882 22.8225 63.0329 22.7726C63.7318 22.7405 64.4236 22.5871 65.0477 22.227C65.7965 21.7955 66.253 21.1215 66.4455 20.2764C66.82 18.6182 66.8307 16.9528 66.4277 15.2982C66.1175 14.018 65.2795 13.2584 64.0527 13.0088C63.311 12.8591 62.5408 12.8127 61.7812 12.777C60.9681 12.7378 60.148 12.7699 59.3171 12.7699C59.3171 11.1616 59.3171 9.56763 59.3171 7.94153C59.4348 7.94153 59.5489 7.93796 59.663 7.94153C60.9111 7.97362 62.1628 7.93439 63.4037 8.05207C65.5077 8.2482 67.3834 9.03986 68.9061 10.6125C68.9382 10.6446 68.9703 10.6767 69.0059 10.7052C69.0202 10.7159 69.038 10.7195 69.0059 10.7052C69.5765 10.2594 70.1007 9.79228 70.6784 9.41429C72.0228 8.53348 73.5241 8.09486 75.1038 8.00215C76.302 7.93083 77.5073 7.95935 78.7126 7.94509C78.7376 7.94509 78.7626 7.95579 78.7982 7.96292C78.7982 9.55693 78.7982 11.1474 78.7982 12.7735C78.7055 12.7735 78.6128 12.7735 78.5165 12.7735C77.3932 12.7913 76.2735 12.7949 75.1537 12.8341C74.4869 12.8591 73.8379 13.0017 73.2281 13.3012C72.4971 13.6578 71.9907 14.2462 71.766 15.0308C71.2597 16.7995 71.2597 18.5968 71.7018 20.3798C72.0085 21.6207 72.843 22.3518 74.0376 22.6014C74.6723 22.7227 75.3285 22.7512 76.006 22.8261Z" fill="#1B1B1B"/>
<path id="Vector_4" d="M86.7219 15.127C86.162 16.2075 85.9837 17.3629 85.9801 18.5361C85.9587 24.1276 85.9659 29.7191 85.9659 35.3106C85.9659 35.4176 85.9659 35.5246 85.9659 35.6494C84.3754 35.6494 82.8028 35.6494 81.2159 35.6494C81.2124 35.5781 81.2052 35.5175 81.2052 35.4569C81.2088 29.8547 81.1945 24.256 81.2195 18.6538C81.2266 16.7852 81.6118 14.9772 82.4712 13.2977C83.516 11.2543 85.0993 9.78513 87.2211 8.89719C88.7545 8.25531 90.3592 7.94864 92.0138 7.93437C94.831 7.90941 97.6517 7.92367 100.469 7.92367C100.504 7.92367 100.54 7.92724 100.597 7.93081C100.597 9.50699 100.597 11.076 100.597 12.6772C100.501 12.6772 100.401 12.6772 100.305 12.6772C97.4948 12.6807 94.6848 12.67 91.8747 12.6986C90.7871 12.7093 89.7102 12.8555 88.701 13.3048C87.8416 13.6757 87.1676 14.264 86.7219 15.127Z" fill="#1B1B1B"/>
<path id="Vector_5" d="M2.49264 35.6601C1.65463 35.6601 0.841579 35.6601 0 35.6601C0 35.5496 0 35.4497 0 35.3535C0 30.0437 0 24.7339 0 19.4241C0 17.7159 0.181867 16.0435 0.777391 14.4281C1.75091 11.7857 3.51609 9.90637 6.12998 8.84014C7.58134 8.24818 9.10047 7.94864 10.6588 7.93081C13.5402 7.89871 16.4251 7.91654 19.3064 7.91298C19.3314 7.91298 19.3599 7.92011 19.3991 7.92724C19.3991 9.49628 19.3991 11.0618 19.3991 12.6665C19.3064 12.6665 19.2137 12.6665 19.1174 12.6665C16.3181 12.67 13.5152 12.6629 10.7159 12.6843C9.79584 12.6914 8.88294 12.8091 7.99857 13.098C6.41169 13.6186 5.47383 14.7062 5.06374 16.3074C4.80342 17.3272 4.74993 18.3614 4.74993 19.3991C4.7428 24.6982 4.74636 30.0009 4.74636 35.3C4.74636 35.4069 4.74636 35.5175 4.74636 35.653C3.99037 35.6601 3.25577 35.6601 2.49264 35.6601Z" fill="#1B1B1B"/>
<path id="Vector_6" d="M145.322 3.15235C145.322 11.3506 145.322 19.5239 145.322 27.7115C143.746 27.7115 142.173 27.7115 140.59 27.7115C140.59 18.4755 140.59 9.23954 140.59 0C142.166 0 143.732 0 145.322 0C145.322 1.05197 145.322 2.08612 145.322 3.15235Z" fill="#1B1B1B"/>
<path id="Vector_7" d="M159.993 8.14122C160.021 9.66747 159.925 11.1545 159.543 12.613C159.03 14.585 158.085 16.2967 156.537 17.6518C156.484 17.6981 156.43 17.7516 156.359 17.8194C159.383 20.4511 160.093 23.928 159.989 27.7186C158.402 27.7186 156.83 27.7186 155.225 27.7186C155.225 27.1445 155.271 26.5775 155.214 26.0212C155.132 25.2082 155.054 24.3844 154.843 23.5999C154.369 21.8311 153.132 20.8469 151.377 20.4618C150.389 20.2443 149.391 20.205 148.385 20.2086C148.168 20.2086 147.95 20.2086 147.726 20.2086C147.726 18.6146 147.726 17.0491 147.726 15.4444C147.89 15.4444 148.05 15.4444 148.211 15.4444C149.259 15.448 150.304 15.4195 151.338 15.2019C153.371 14.774 154.576 13.5366 155 11.5147C155.218 10.4912 155.246 9.45351 155.232 8.41223C155.229 8.2589 155.232 8.10556 155.232 7.93439C155.296 7.92726 155.35 7.91656 155.4 7.91656C156.858 7.91656 158.32 7.91656 159.779 7.91299C159.929 7.91299 160.028 7.92726 159.993 8.14122Z" fill="#1B1B1B"/>
<path id="Vector_8" d="M35.1823 10.4342C35.1823 11.1902 35.1823 11.9176 35.1823 12.67C35.0504 12.67 34.9434 12.67 34.8364 12.67C33.5063 12.6736 32.169 12.613 30.8532 12.8448C29.4517 13.0944 28.2143 13.6364 27.4547 14.9345C27.0054 15.7012 26.7736 16.5463 26.6952 17.4235C26.631 18.1688 26.5882 18.9141 26.5846 19.663C26.5704 22.2448 26.5811 24.8266 26.5811 27.4084C26.5811 27.5082 26.5811 27.6045 26.5811 27.7186C24.9942 27.7186 23.4216 27.7186 21.8276 27.7186C21.8276 27.6152 21.8276 27.5261 21.8276 27.4405C21.8276 24.741 21.8276 22.0415 21.8276 19.3385C21.8276 17.4628 22.0808 15.6334 22.8225 13.8932C23.9315 11.2936 25.85 9.56405 28.5032 8.64045C29.794 8.19114 31.1313 7.96648 32.4971 7.93082C33.3815 7.90942 34.2658 7.92725 35.1823 7.92725C35.1823 8.75457 35.1823 9.58188 35.1823 10.4342Z" fill="#1B1B1B"/>
<path id="Vector_9" d="M129.753 17.2096C129.703 17.9406 129.621 18.6502 129.617 19.3599C129.603 22.0415 129.61 24.7232 129.61 27.4048C129.61 27.5046 129.61 27.6045 129.61 27.7186C128.023 27.7186 126.451 27.7186 124.86 27.7186C124.857 27.6366 124.85 27.5581 124.85 27.4761C124.85 24.7481 124.843 22.0201 124.853 19.2921C124.86 17.4093 125.114 15.5656 125.88 13.8254C126.911 11.4754 128.615 9.81365 130.99 8.8437C132.452 8.24817 133.979 7.97359 135.548 7.92723C136.421 7.90227 137.299 7.92367 138.19 7.92367C138.19 9.49984 138.19 11.0689 138.19 12.67C138.08 12.67 137.973 12.67 137.866 12.67C136.543 12.6736 135.22 12.6165 133.907 12.8448C132.713 13.0516 131.622 13.4759 130.826 14.4495C130.174 15.2376 129.892 16.1861 129.753 17.2096Z" fill="#1B1B1B"/>
<path id="Vector_10" d="M95.5834 19.2101C95.9043 17.8372 95.8687 16.4571 95.8723 15.0628C97.4484 15.0628 99.0103 15.0628 100.579 15.0628C100.587 15.0771 100.608 15.1021 100.608 15.127C100.683 17.4485 100.54 19.7379 99.5702 21.8953C98.5789 24.1027 96.9777 25.7074 94.7632 26.688C93.0801 27.4333 91.3042 27.7043 89.4784 27.7329C89.1075 27.7364 88.7331 27.7329 88.348 27.7329C88.348 26.1424 88.348 24.5805 88.348 22.9687C88.4585 22.9687 88.5726 22.9687 88.6867 22.9687C89.8992 22.983 91.1045 22.9544 92.2884 22.6442C94.0785 22.1699 95.1555 21.0216 95.5834 19.2101Z" fill="#0038A8"/>
<path id="Vector_11" d="M19.417 15.4729C19.4348 16.9065 19.3956 18.3043 19.0853 19.6844C18.7323 21.2641 18.1118 22.7226 17.0955 23.9957C16.1933 25.1261 15.0736 25.9748 13.7684 26.5882C11.9355 27.4476 9.99199 27.7329 7.99145 27.7293C7.7347 27.7293 7.48151 27.7293 7.22476 27.7257C7.20693 27.7257 7.1891 27.7186 7.15344 27.7115C7.15344 26.1424 7.15344 24.5698 7.15344 22.958C7.71687 22.958 8.291 22.9758 8.86156 22.9544C9.81725 22.9188 10.7622 22.7975 11.6644 22.4587C13.1158 21.9131 13.9574 20.8362 14.339 19.3634C14.5708 18.4684 14.6492 17.5519 14.6492 16.6319C14.6492 16.1148 14.6492 15.5977 14.6492 15.0593C16.2432 15.0593 17.8158 15.0593 19.4134 15.0593C19.417 15.1948 19.417 15.3196 19.417 15.4729Z" fill="#0038A8"/>
</g>
</svg>
